M48
; DRILL file {KiCad (6.0.4)} date Sat Apr 30 15:57:20 2022
; FORMAT={-:-/ absolute / inch / decimal}
; #@! TF.CreationDate,2022-04-30T15:57:20-05:00
; #@! TF.GenerationSoftware,Kicad,Pcbnew,(6.0.4)
; #@! TF.FileFunction,Plated,1,2,PTH
FMAT,2
INCH
; #@! TA.AperFunction,Plated,PTH,ComponentDrill
T1C0.0236
; #@! TA.AperFunction,Plated,PTH,ComponentDrill
T2C0.0354
; #@! TA.AperFunction,Plated,PTH,ComponentDrill
T3C0.0394
; #@! TA.AperFunction,Plated,PTH,ComponentDrill
T4C0.0472
; #@! TA.AperFunction,Plated,PTH,ComponentDrill
T5C0.0512
; #@! TA.AperFunction,Plated,PTH,ComponentDrill
T6C0.0984
%
G90
G05
T1
X3.8583Y-4.4
X3.8583Y-4.6
X4.0Y-4.4
X4.0Y-4.6
X5.8Y-5.6
X5.9417Y-5.6
X7.2394Y-4.6606
X7.2394Y-4.8024
X7.3Y-3.5583
X7.3Y-3.7
T2
X7.0Y-6.2
X7.1Y-6.2
T3
X5.45Y-4.5004
X5.45Y-5.1004
X5.55Y-4.5004
X5.55Y-5.1004
X5.65Y-4.5004
X5.65Y-5.1004
X5.75Y-4.5004
X5.75Y-5.1004
X5.85Y-4.5004
X5.85Y-5.1004
X5.95Y-4.5004
X5.95Y-5.1004
X6.05Y-4.5004
X6.05Y-5.1004
X6.15Y-4.5004
X6.15Y-5.1004
X6.25Y-4.5004
X6.25Y-5.1004
X6.35Y-4.5004
X6.35Y-5.1004
X6.45Y-4.5004
X6.45Y-5.1004
X6.55Y-4.5004
X6.55Y-5.1004
X6.65Y-4.5004
X6.65Y-5.1004
X6.75Y-4.5004
X6.75Y-5.1004
X6.85Y-4.5004
X6.85Y-5.1004
T4
X4.9598Y-3.9046
X5.0598Y-3.9046
X5.1598Y-3.9046
X5.2598Y-3.9046
X5.3598Y-3.9046
X5.4598Y-3.9046
X5.5598Y-3.9046
X5.6598Y-3.9046
X5.7598Y-3.9046
X5.8598Y-3.9046
X5.9598Y-3.9046
X6.0598Y-3.9046
X6.1598Y-3.9046
X6.2598Y-3.9046
X6.3598Y-3.9046
X6.4598Y-3.9046
T5
X3.8031Y-6.1102
X4.0Y-6.1102
X4.1969Y-6.1102
X4.8031Y-6.1102
X5.0Y-6.1102
X5.1969Y-6.1102
T6
X3.7236Y-3.9046
X3.7236Y-2.6841
X6.6763Y-2.6841
X6.6763Y-3.9046
T0
M30
